<svg width="231" height="53" viewBox="0 0 231 53" fill="none" xmlns="http://www.w3.org/2000/svg">
<path fill-rule="evenodd" clip-rule="evenodd" d="M36.1788 26.2749C36.1728 26.3941 36.212 26.4958 36.2964 26.583C36.3809 26.6731 36.4864 26.7166 36.61 26.7225H36.6281C36.7487 26.7225 36.8543 26.6818 36.9387 26.6033C37.0261 26.5248 37.0744 26.426 37.0804 26.3098C37.1468 24.8481 37.005 23.5666 36.6643 22.5001C36.6281 22.3839 36.5557 22.2967 36.4472 22.2386C36.3356 22.1775 36.218 22.1688 36.0974 22.2037C35.9768 22.2386 35.8863 22.3112 35.829 22.4187C35.7718 22.5263 35.7627 22.6396 35.8019 22.7529C36.1125 23.7235 36.2391 24.9091 36.1788 26.2749ZM8.4014 21.9363C8.47377 21.9799 8.55518 22.0032 8.63961 22.0032C8.80847 22.0032 8.93512 21.9364 9.02256 21.8027C9.21856 21.5063 9.4417 21.2273 9.68896 20.9687C9.77339 20.8786 9.80957 20.7769 9.80655 20.6577C9.80052 20.5386 9.75228 20.4369 9.6588 20.3584C9.56834 20.2771 9.45979 20.2393 9.33616 20.2451C9.21253 20.248 9.10699 20.2945 9.02256 20.3846C8.73912 20.681 8.48281 20.9977 8.25666 21.3406C8.19032 21.4394 8.17223 21.5499 8.19937 21.6661C8.22651 21.7823 8.29586 21.8724 8.4014 21.9363ZM66.857 36.9747C66.7032 35.3473 66.0067 30.0381 64.0196 29.8289C62.0325 29.6226 58.3236 29.5122 57.2471 29.4831C56.243 27.1758 55.2539 26.551 53.1703 25.6473C51.3641 24.8626 47.999 23.401 45.3515 23.1975C43.9313 23.1074 42.5111 23.0958 41.0908 23.1598C40.5903 20.5299 38.5368 17.1532 34.9063 15.1771C32.1021 13.6573 27.377 12.4426 20.6407 15.0957C20.5864 12.8029 21.1805 10.6787 22.4198 8.71717C23.255 7.36009 23.7978 6.71497 25.1125 5.8054C27.0242 4.47157 29.2375 3.86132 31.9573 3.8991C32.5966 4.71858 33.8148 5.00627 35.3375 5.32011C34.6892 7.20898 35.5004 8.7811 37.7528 9.99869C38.8625 10.5595 39.9993 11.0594 41.1662 11.4982C44.2992 12.7564 47.8513 14.1862 49.4916 17.0049C49.576 17.1532 49.7057 17.2258 49.8836 17.2229C49.9077 17.2258 49.9318 17.2258 49.956 17.2229C50.161 17.1909 50.2846 17.0747 50.3238 16.88C51.542 10.8908 47.1487 4.98593 42.2759 3.23073C39.3208 2.15262 36.7879 2.66116 35.7024 4.51516C34.24 4.21585 33.1544 3.98337 32.684 3.39346C32.7624 2.9721 32.7926 2.03057 31.8578 1.12973C31.7493 1.02221 31.6166 0.981522 31.4628 1.00768C29.8345 1.26049 27.763 2.22818 25.8181 3.73346C24.039 5.08182 22.5916 6.70044 21.476 8.59512C20.2759 10.6119 19.6969 12.7797 19.7361 15.1015C18.1169 14.5988 15.1226 13.9334 12.3153 14.5872C9.20951 15.3166 6.34191 17.6268 4.46335 20.9541C3.89948 21.9625 3.44115 23.0145 3.09136 24.11C2.74158 25.2055 2.50337 26.3214 2.37974 27.4606C2.25611 28.5997 2.25008 29.7388 2.35863 30.878C2.46719 32.02 2.68731 33.1388 3.02503 34.2372C2.77475 34.1966 2.52448 34.1704 2.27119 34.1588C2.04202 34.1414 1.82492 34.1878 1.62289 34.2925C1.41784 34.4 1.26406 34.5511 1.15249 34.7458C1.04093 34.9376 0.989664 35.1439 1.00173 35.3648C1.01379 35.5856 1.08917 35.7861 1.22185 35.9663C2.91044 38.2533 5.12371 41.383 6.08259 43.3067C6.34794 43.8414 6.75502 44.2454 7.3008 44.5243C10.4549 46.1429 15.0171 49.0285 17.1308 50.589C17.6917 51.0337 18.334 51.2545 19.0607 51.2574C19.1933 51.2574 19.326 51.2487 19.4557 51.2313L21.9976 50.9465C22.6128 51.3533 23.2942 51.5567 24.039 51.5567C24.1325 51.5567 24.226 51.5567 24.3194 51.5451C27.7238 51.2836 31.7161 50.8244 32.6117 50.7198C32.7262 50.8099 32.8378 50.9 32.9434 50.9843C33.4952 51.4405 34.1404 51.6701 34.8702 51.6701C35.0451 51.6701 35.2199 51.6555 35.3918 51.6265C37.1166 51.3272 39.0163 51.0511 40.8496 50.7866C45.5837 50.1008 50.4806 49.3889 53.1703 48.1161C54.0327 47.7122 54.8378 47.221 55.5796 46.637C58.9417 45.2595 64.3724 43.577 65.9795 43.1178C67.2882 42.7372 67.0289 38.6921 66.857 36.9747ZM36.221 5.48866C38.5218 5.97686 41.4889 6.76146 44.3957 9.35938C44.4861 9.44947 44.5947 9.49306 44.7243 9.49306C44.854 9.49015 44.9625 9.44656 45.05 9.35357C45.1374 9.26349 45.1797 9.15597 45.1706 9.03392C45.1616 8.90896 45.1073 8.80725 45.0108 8.72879C42.0256 6.05822 39.0102 5.20387 36.6341 4.69242C37.786 3.11449 40.2857 3.4109 41.9562 4.02405C45.647 5.35789 50.0917 10.0074 49.6092 15.5897C47.6643 13.1633 44.4228 11.8614 41.522 10.6961C40.3883 10.266 39.2816 9.78075 38.2021 9.23443C36.2964 8.20863 35.6632 7.01137 36.221 5.48866ZM31.3693 1.88527C31.6679 2.21074 31.8156 2.58851 31.8156 3.0215C30.2838 3.00116 28.7972 3.23073 27.3499 3.70731C28.4957 2.95176 30.0004 2.16134 31.3693 1.88527ZM5.25639 21.3668C7.01735 18.2545 9.66785 16.0925 12.5264 15.4357C15.5297 14.7441 18.8013 15.6886 20.0678 16.1273C20.9995 16.4499 21.8559 16.8161 22.6791 17.1735C24.8471 18.1092 26.7197 18.9171 28.5289 18.1412C28.6435 18.0918 28.7219 18.0133 28.7671 17.9C28.8123 17.7896 28.8093 17.6791 28.758 17.5687C28.7068 17.4612 28.6224 17.3856 28.5048 17.342C28.3902 17.3014 28.2756 17.3043 28.161 17.3537C26.7197 17.9726 25.1004 17.2723 23.05 16.386C22.5283 16.1593 21.9886 15.9297 21.4307 15.7089C27.5941 13.4132 31.891 14.5262 34.4571 15.9152C38.0001 17.839 39.9269 21.1866 40.2616 23.6596C41.0788 29.7417 38.374 37.8784 34.448 41.2406C33.6851 41.0575 32.7624 40.8744 31.8729 40.7059C33.9595 37.8029 35.8019 33.5747 36.6191 29.7127C36.6432 29.5964 36.6221 29.4889 36.5557 29.3901C36.4864 29.2913 36.3929 29.2303 36.2723 29.2041C36.1517 29.1809 36.0371 29.2012 35.9346 29.2681C35.8321 29.332 35.7657 29.4221 35.7386 29.5383C34.9154 33.4323 33.0278 37.7128 30.905 40.5199C29.922 40.3427 29.0716 40.2003 28.6435 40.1334C28.1248 38.2823 27.4825 36.4719 26.7197 34.7022C26.9609 33.8508 27.169 33.0138 27.3589 32.1421C27.5971 31.0552 27.6273 29.9626 27.4524 28.8641C27.2805 27.7657 26.9096 26.7312 26.3458 25.7606C26.2342 25.5601 26.0744 25.4061 25.8663 25.2985C25.6583 25.1881 25.4351 25.1416 25.1999 25.1591C24.9617 25.1707 24.7446 25.2404 24.5486 25.3683C24.3526 25.4961 24.2049 25.6647 24.1084 25.8739C23.4269 27.3414 22.5012 29.2623 21.6237 30.8402C21.1171 30.2241 20.505 29.7243 19.7934 29.3378C19.6999 29.2884 19.6064 29.2477 19.5039 29.2216C19.4014 29.1925 19.2989 29.178 19.1933 29.1751C19.0878 29.1722 18.9823 29.1838 18.8797 29.207C18.7772 29.2303 18.6807 29.2652 18.5873 29.3117C18.4938 29.3582 18.4063 29.4163 18.3279 29.4831C18.2495 29.5529 18.1802 29.6284 18.1229 29.7127C18.0656 29.797 18.0204 29.887 17.9842 29.9829C17.951 30.0788 17.9299 30.1776 17.9209 30.2764C17.7038 32.8337 16.6062 37.2217 15.5086 39.8574C15.2101 40.5838 15.2282 41.3045 15.5598 42.0165C13.8501 41.0837 12.0741 40.2497 10.3041 39.7934C9.35727 38.6456 7.52092 36.7916 6.98117 36.2482C6.16401 35.4142 5.18703 34.8213 4.04723 34.4726C3.68237 33.3974 3.42908 32.299 3.29641 31.1773C3.16072 30.0527 3.14564 28.9281 3.25118 27.8006C3.3537 26.676 3.57382 25.5688 3.91154 24.4878C4.25228 23.4039 4.69855 22.3635 5.25639 21.3668ZM19.3471 50.3711C18.726 50.4437 18.1742 50.2897 17.6887 49.9091C15.5387 48.3166 10.9192 45.3961 7.72295 43.7572C7.34904 43.5683 7.07163 43.2893 6.89071 42.9231C5.9077 40.9558 3.66428 37.7825 1.95759 35.4694C1.88221 35.3706 1.87618 35.2689 1.9395 35.1642C2.00584 35.0654 2.0963 35.019 2.21993 35.0219C3.0009 35.0596 3.7457 35.234 4.4543 35.5478C5.16593 35.8617 5.7901 36.2918 6.32684 36.8352C6.89071 37.4018 8.79943 39.3285 9.68594 40.4327C9.74926 40.5112 9.83068 40.5606 9.93018 40.5868C12.2038 41.1447 14.5437 42.4001 16.7328 43.6787C18.1983 45.6809 19.8145 48.1015 20.9573 49.8887C21.0176 49.9846 21.081 50.0747 21.1503 50.1619L19.3471 50.3711ZM24.2441 50.682C23.7345 50.7227 23.255 50.6297 22.7997 50.406C22.3474 50.1851 21.9886 49.8626 21.7262 49.4441C20.3512 47.2937 18.2948 44.225 16.6273 42.0659C16.4132 41.7956 16.2805 41.4905 16.2293 41.1534C16.181 40.8163 16.2202 40.4909 16.3469 40.1741C17.4655 37.4745 18.5963 32.9703 18.8194 30.3404C18.8285 30.2183 18.8888 30.1282 19.0034 30.073C19.121 30.012 19.2386 30.0149 19.3501 30.0846C20.0768 30.4769 20.6739 31.0029 21.1443 31.6655C21.087 31.7585 21.0327 31.8515 20.9694 31.9386C20.695 32.392 20.5895 32.8802 20.6558 33.4003C21.0026 36.2482 21.4277 40.3775 21.4941 42.6296C21.5031 42.9987 21.6026 43.3445 21.7926 43.6671C21.9825 43.9896 22.2389 44.2483 22.5645 44.4459C23.5355 45.0329 24.5245 45.6228 25.4984 46.204C27.775 47.5581 29.9582 48.8542 31.5623 49.9643C29.9732 50.1473 26.9217 50.4757 24.2441 50.682ZM65.7293 42.2955C64.7282 42.5831 60.6424 43.8182 57.1928 45.0881C58.6402 43.3474 59.2975 41.3249 58.8211 39.5377C58.0371 36.6056 54.7142 35.1381 54.5755 35.0771C54.4609 35.0277 54.3463 35.0248 54.2287 35.0684C54.1141 35.109 54.0297 35.1846 53.9784 35.2921C53.9272 35.4025 53.9242 35.513 53.9664 35.6234C54.0116 35.7367 54.09 35.8152 54.2046 35.8646C54.2348 35.8791 57.2712 37.2188 57.9497 39.7527C58.6462 42.3768 56.4299 45.6431 52.7874 47.3431C50.2183 48.5549 45.3937 49.2552 40.726 49.9323C38.8836 50.1996 36.9809 50.4728 35.2441 50.7779C34.5958 50.8884 34.0228 50.7372 33.5223 50.3304C31.9091 48.9966 29.0294 47.2879 25.9809 45.4717C25.0069 44.8963 24.0179 44.3035 23.053 43.7223C22.6308 43.4636 22.4137 43.0917 22.3987 42.6122C22.3353 40.3281 21.9041 36.1726 21.5574 33.3073C21.5152 32.9761 21.5815 32.668 21.7594 32.3803C22.8178 30.6571 24.0722 28.0795 24.9346 26.2197C24.9919 26.0919 25.0944 26.0221 25.2421 26.0192C25.3839 26.0134 25.4924 26.0686 25.5678 26.1849C26.0744 27.0654 26.4061 28.0011 26.5629 28.9978C26.7197 29.9917 26.6895 30.9797 26.4724 31.9648C26.2764 32.8685 26.0593 33.7345 25.806 34.615C25.7789 34.7138 25.7849 34.8097 25.8271 34.9027C26.6383 36.7596 27.3077 38.6659 27.8384 40.6158C27.8866 40.7989 28.0072 40.9064 28.2032 40.9355C28.2424 40.9355 32.2046 41.5748 34.454 42.1269C34.5294 42.1443 34.6048 42.1443 34.6832 42.1269C37.0201 41.5254 39.3178 40.7059 41.5401 39.9126C46.7597 38.0499 51.2827 36.4429 53.3874 38.7357C53.4689 38.8228 53.5714 38.8693 53.695 38.8781C53.8186 38.8839 53.9272 38.849 54.0176 38.7705C54.1111 38.6921 54.1624 38.5933 54.1714 38.477C54.1805 38.3579 54.1443 38.2533 54.0629 38.1632C51.5451 35.4258 46.7567 37.1287 41.2265 39.1018C39.562 39.6946 37.8493 40.3049 36.1215 40.8221C39.5982 36.9456 41.8236 29.7999 41.2084 24.0083C42.5653 23.9502 43.9253 23.9647 45.2822 24.0461C47.7729 24.2379 51.0415 25.6589 52.7964 26.4231C54.8469 27.3211 55.5796 27.7977 56.5234 30.0643C56.5958 30.2416 56.7315 30.3316 56.9305 30.3375C56.9757 30.3375 61.6284 30.445 63.9201 30.6891C64.1975 30.7152 64.6799 31.2616 65.1383 32.7058C66.2509 36.2278 66.3263 41.8014 65.7293 42.2955ZM50.6374 31.7875C50.5138 31.8021 50.4113 31.8573 50.3359 31.9503C50.2605 32.0462 50.2274 32.1508 50.2424 32.2699C50.2575 32.3891 50.3148 32.485 50.4143 32.5605C50.5138 32.6332 50.6254 32.6622 50.749 32.6448C51.8406 32.5169 55.5826 32.3135 57.8803 35.109C57.9678 35.2166 58.0823 35.2718 58.2271 35.2747C58.3326 35.2747 58.4261 35.2456 58.5075 35.1846C58.604 35.109 58.6613 35.0131 58.6764 34.894C58.6914 34.7748 58.6583 34.6702 58.5829 34.5772C56.846 32.4385 53.8729 31.401 50.6374 31.7817V31.7875Z" fill="#27AE60" stroke="#27AE60"/>
<path d="M82.8165 38V36.728H83.8245C84.1765 36.728 84.4645 36.64 84.6885 36.464C84.9285 36.288 85.0485 35.856 85.0485 35.168V23.696C85.0485 23.008 84.9285 22.576 84.6885 22.4C84.4645 22.224 84.1765 22.136 83.8245 22.136H82.8165V20.864H91.0965V22.136H90.0885C89.7365 22.136 89.4405 22.224 89.2005 22.4C88.9765 22.576 88.8645 23.008 88.8645 23.696V35.168C88.8645 35.856 88.9765 36.288 89.2005 36.464C89.4405 36.64 89.7365 36.728 90.0885 36.728H91.0965V38H82.8165ZM92.8573 26.96C93.5613 26.704 94.0893 26.448 94.4413 26.192C94.7933 25.92 94.9693 25.552 94.9693 25.088C94.9693 24.864 94.8813 24.696 94.7053 24.584C94.5293 24.456 94.3213 24.328 94.0813 24.2C93.8573 24.056 93.6573 23.864 93.4813 23.624C93.3053 23.368 93.2173 23 93.2173 22.52C93.2173 21.976 93.3773 21.568 93.6973 21.296C94.0333 21.008 94.4493 20.864 94.9453 20.864C95.6173 20.864 96.1533 21.104 96.5533 21.584C96.9533 22.048 97.1533 22.688 97.1533 23.504C97.1533 24.528 96.8253 25.464 96.1693 26.312C95.5293 27.16 94.4253 27.792 92.8573 28.208V26.96ZM98.9839 38V36.728H99.0319C99.5759 36.728 100.024 36.632 100.376 36.44C100.728 36.248 100.904 35.792 100.904 35.072V27.896C100.904 27.224 100.744 26.8 100.424 26.624C100.12 26.432 99.7039 26.336 99.1759 26.336H99.1039V25.136H104.144L104.456 26.84H104.576C104.896 26.232 105.24 25.792 105.608 25.52C105.992 25.232 106.4 25.048 106.832 24.968C107.28 24.872 107.752 24.824 108.248 24.824C109.128 24.824 109.88 24.984 110.504 25.304C111.128 25.624 111.584 26.136 111.872 26.84H112.088C112.408 26.232 112.768 25.792 113.168 25.52C113.568 25.232 114 25.048 114.464 24.968C114.928 24.872 115.408 24.824 115.904 24.824C117.136 24.824 118.104 25.192 118.808 25.928C119.512 26.664 119.864 27.84 119.864 29.456V35.024C119.864 35.76 119.992 36.232 120.248 36.44C120.52 36.632 120.928 36.728 121.472 36.728H121.544V38H116.216V30.104C116.216 29.064 116.072 28.264 115.784 27.704C115.496 27.144 115 26.864 114.296 26.864C113.8 26.864 113.392 27.024 113.072 27.344C112.768 27.648 112.544 28.064 112.4 28.592C112.272 29.104 112.208 29.672 112.208 30.296V35.024C112.208 35.76 112.336 36.232 112.592 36.44C112.864 36.632 113.272 36.728 113.816 36.728H113.888V38H108.56V30.104C108.56 29.064 108.416 28.264 108.128 27.704C107.84 27.144 107.344 26.864 106.64 26.864C106.112 26.864 105.696 27.04 105.392 27.392C105.088 27.728 104.872 28.184 104.744 28.76C104.616 29.32 104.552 29.928 104.552 30.584V35.168C104.552 35.84 104.704 36.272 105.008 36.464C105.328 36.64 105.752 36.728 106.28 36.728H106.352V38H98.9839ZM129.082 38V36.728H130.09C130.442 36.728 130.73 36.64 130.954 36.464C131.194 36.288 131.314 35.856 131.314 35.168V23.6C131.314 22.96 131.194 22.56 130.954 22.4C130.714 22.224 130.426 22.136 130.09 22.136H129.082V20.864H136.45C138.674 20.864 140.322 21.32 141.394 22.232C142.466 23.144 143.002 24.384 143.002 25.952C143.002 26.912 142.77 27.808 142.306 28.64C141.858 29.472 141.114 30.152 140.074 30.68C139.034 31.192 137.65 31.448 135.922 31.448H135.106V35.288C135.106 35.928 135.234 36.328 135.49 36.488C135.746 36.648 136.042 36.728 136.378 36.728H137.842V38H129.082ZM135.682 30.056C136.866 30.056 137.706 29.752 138.202 29.144C138.714 28.52 138.97 27.488 138.97 26.048C138.97 24.768 138.746 23.824 138.298 23.216C137.866 22.592 137.114 22.28 136.042 22.28H135.106V30.056H135.682ZM151.059 38.24C149.027 38.24 147.483 37.664 146.427 36.512C145.371 35.344 144.843 33.72 144.843 31.64C144.843 29.384 145.363 27.688 146.403 26.552C147.443 25.4 148.907 24.824 150.795 24.824C152.539 24.824 153.907 25.312 154.899 26.288C155.907 27.264 156.411 28.704 156.411 30.608V31.832H148.539C148.587 33.432 148.883 34.6 149.427 35.336C149.987 36.072 150.763 36.44 151.755 36.44C152.587 36.44 153.291 36.256 153.867 35.888C154.443 35.504 154.867 35.04 155.139 34.496C155.571 34.736 155.787 35.128 155.787 35.672C155.787 36.36 155.403 36.96 154.635 37.472C153.867 37.984 152.675 38.24 151.059 38.24ZM152.739 30.296C152.739 29.064 152.595 28.104 152.307 27.416C152.019 26.728 151.531 26.384 150.843 26.384C150.171 26.384 149.635 26.72 149.235 27.392C148.835 28.048 148.619 29.016 148.587 30.296H152.739ZM157.906 38V36.728H157.978C158.522 36.728 158.962 36.632 159.298 36.44C159.65 36.232 159.826 35.752 159.826 35V28.04C159.826 27.336 159.666 26.888 159.346 26.696C159.042 26.504 158.626 26.408 158.098 26.408H158.026V25.136H162.874L163.354 27.008H163.474C163.794 26.288 164.194 25.752 164.674 25.4C165.154 25.032 165.882 24.848 166.858 24.848C168.698 24.848 169.618 25.496 169.618 26.792C169.618 27.528 169.346 28.104 168.802 28.52C168.274 28.92 167.53 29.12 166.57 29.12C166.57 28.464 166.49 27.968 166.33 27.632C166.17 27.296 165.858 27.128 165.394 27.128C164.978 27.128 164.642 27.272 164.386 27.56C164.13 27.848 163.938 28.208 163.81 28.64C163.682 29.056 163.594 29.48 163.546 29.912C163.498 30.344 163.474 30.696 163.474 30.968V35.12C163.474 35.824 163.634 36.272 163.954 36.464C164.274 36.64 164.674 36.728 165.154 36.728H165.922V38H157.906ZM170.444 38V36.728H170.972C171.212 36.728 171.46 36.696 171.716 36.632C171.988 36.552 172.212 36.4 172.388 36.176C172.58 35.952 172.676 35.616 172.676 35.168V26.768H170.54V25.136H172.676V24.248C172.676 22.76 173.068 21.608 173.852 20.792C174.636 19.96 175.876 19.544 177.572 19.544C178.612 19.544 179.42 19.624 179.996 19.784C180.572 19.928 180.98 20.136 181.22 20.408C181.46 20.664 181.58 20.96 181.58 21.296C181.58 22.336 180.596 22.856 178.628 22.856C178.628 22.6 178.588 22.32 178.508 22.016C178.428 21.712 178.3 21.456 178.124 21.248C177.964 21.024 177.732 20.912 177.428 20.912C177.028 20.912 176.74 21.136 176.564 21.584C176.404 22.016 176.324 22.76 176.324 23.816V25.136H179.636V26.768H176.324V35.168C176.324 35.616 176.412 35.952 176.588 36.176C176.78 36.4 177.012 36.552 177.284 36.632C177.556 36.696 177.804 36.728 178.028 36.728H179.156V38H170.444ZM187.106 38.24C185.074 38.24 183.53 37.664 182.474 36.512C181.418 35.344 180.89 33.72 180.89 31.64C180.89 29.384 181.41 27.688 182.45 26.552C183.49 25.4 184.954 24.824 186.842 24.824C188.586 24.824 189.954 25.312 190.946 26.288C191.954 27.264 192.458 28.704 192.458 30.608V31.832H184.586C184.634 33.432 184.93 34.6 185.474 35.336C186.034 36.072 186.81 36.44 187.802 36.44C188.634 36.44 189.338 36.256 189.914 35.888C190.49 35.504 190.914 35.04 191.186 34.496C191.618 34.736 191.834 35.128 191.834 35.672C191.834 36.36 191.45 36.96 190.682 37.472C189.914 37.984 188.722 38.24 187.106 38.24ZM188.786 30.296C188.786 29.064 188.642 28.104 188.354 27.416C188.066 26.728 187.578 26.384 186.89 26.384C186.218 26.384 185.682 26.72 185.282 27.392C184.882 28.048 184.666 29.016 184.634 30.296H188.786ZM200.553 38.24C199.385 38.24 198.353 38.032 197.457 37.616C196.561 37.184 195.857 36.488 195.345 35.528C194.849 34.552 194.601 33.248 194.601 31.616C194.601 29.888 194.857 28.536 195.369 27.56C195.897 26.568 196.601 25.864 197.481 25.448C198.377 25.032 199.377 24.824 200.481 24.824C202.033 24.824 203.209 25.072 204.009 25.568C204.825 26.048 205.233 26.64 205.233 27.344C205.233 27.68 205.145 28.008 204.969 28.328C204.809 28.632 204.505 28.888 204.057 29.096C203.609 29.288 202.969 29.384 202.137 29.384C202.137 28.824 202.089 28.312 201.993 27.848C201.897 27.384 201.737 27.008 201.513 26.72C201.289 26.432 200.977 26.288 200.577 26.288C200.113 26.288 199.705 26.448 199.353 26.768C199.017 27.072 198.753 27.608 198.561 28.376C198.385 29.144 198.297 30.216 198.297 31.592C198.297 33.208 198.521 34.424 198.969 35.24C199.417 36.04 200.145 36.44 201.153 36.44C201.985 36.44 202.705 36.256 203.313 35.888C203.921 35.504 204.361 35.04 204.633 34.496C204.825 34.608 204.969 34.768 205.065 34.976C205.161 35.168 205.209 35.376 205.209 35.6C205.209 36 205.041 36.408 204.705 36.824C204.385 37.224 203.881 37.56 203.193 37.832C202.521 38.104 201.641 38.24 200.553 38.24ZM211.961 38.24C210.889 38.24 210.033 37.96 209.393 37.4C208.753 36.84 208.433 35.856 208.433 34.448V26.768H206.633V25.544C207.145 25.544 207.601 25.44 208.001 25.232C208.417 25.024 208.745 24.792 208.985 24.536C209.481 24.008 209.849 23.216 210.089 22.16H212.081V25.136H215.153V26.768H212.081V34.208C212.081 34.928 212.201 35.456 212.441 35.792C212.697 36.128 213.105 36.296 213.665 36.296C213.985 36.296 214.281 36.28 214.553 36.248C214.841 36.2 215.113 36.144 215.369 36.08V37.64C215.113 37.752 214.689 37.88 214.097 38.024C213.521 38.168 212.809 38.24 211.961 38.24Z" fill="#27AE60"/>
</svg>
