<svg width="532" height="80" viewBox="0 0 532 80" fill="none" xmlns="http://www.w3.org/2000/svg">
<path d="M14.5703 25.5781L2.5 21.1445V16.4766L19.375 23.7422V27.5117L2.5 34.7773V30.1094L14.5703 25.5781ZM35.8008 38H31.0742V15.168L24.1016 17.5508V13.5469L35.1953 9.46484H35.8008V38ZM64.2188 26.0273C64.2188 30.1159 63.4505 33.2018 61.9141 35.2852C60.3906 37.3555 58.0664 38.3906 54.9414 38.3906C51.8685 38.3906 49.5508 37.3815 47.9883 35.3633C46.4388 33.332 45.6445 30.3307 45.6055 26.3594V21.4375C45.6055 17.349 46.3672 14.2826 47.8906 12.2383C49.4271 10.194 51.7643 9.17188 54.9023 9.17188C58.0143 9.17188 60.332 10.168 61.8555 12.1602C63.3919 14.1523 64.1797 17.1341 64.2188 21.1055V26.0273ZM59.4727 20.7148C59.4727 18.0456 59.1081 16.0924 58.3789 14.8555C57.6497 13.6055 56.4909 12.9805 54.9023 12.9805C53.3529 12.9805 52.2135 13.5729 51.4844 14.7578C50.7552 15.9297 50.3711 17.7656 50.332 20.2656V26.7109C50.332 29.3672 50.7031 31.3464 51.4453 32.6484C52.1875 33.9505 53.3529 34.6016 54.9414 34.6016C56.4648 34.6016 57.5911 34.0026 58.3203 32.8047C59.0495 31.5938 59.4336 29.7057 59.4727 27.1406V20.7148ZM86.9531 26.0273C86.9531 30.1159 86.1849 33.2018 84.6484 35.2852C83.125 37.3555 80.8008 38.3906 77.6758 38.3906C74.6029 38.3906 72.2852 37.3815 70.7227 35.3633C69.1732 33.332 68.3789 30.3307 68.3398 26.3594V21.4375C68.3398 17.349 69.1016 14.2826 70.625 12.2383C72.1615 10.194 74.4987 9.17188 77.6367 9.17188C80.7487 9.17188 83.0664 10.168 84.5898 12.1602C86.1263 14.1523 86.9141 17.1341 86.9531 21.1055V26.0273ZM82.207 20.7148C82.207 18.0456 81.8424 16.0924 81.1133 14.8555C80.3841 13.6055 79.2253 12.9805 77.6367 12.9805C76.0872 12.9805 74.9479 13.5729 74.2188 14.7578C73.4896 15.9297 73.1055 17.7656 73.0664 20.2656V26.7109C73.0664 29.3672 73.4375 31.3464 74.1797 32.6484C74.9219 33.9505 76.0872 34.6016 77.6758 34.6016C79.1992 34.6016 80.3255 34.0026 81.0547 32.8047C81.7839 31.5938 82.168 29.7057 82.207 27.1406V20.7148ZM94.4141 33C95.2995 33 95.9831 33.2539 96.4648 33.7617C96.9466 34.2565 97.1875 34.8815 97.1875 35.6367C97.1875 36.3789 96.9466 36.9974 96.4648 37.4922C95.9831 37.974 95.2995 38.2148 94.4141 38.2148C93.5677 38.2148 92.8971 37.974 92.4023 37.4922C91.9076 37.0104 91.6602 36.3919 91.6602 35.6367C91.6602 34.8815 91.901 34.2565 92.3828 33.7617C92.8646 33.2539 93.5417 33 94.4141 33ZM120.859 26.0273C120.859 30.1159 120.091 33.2018 118.555 35.2852C117.031 37.3555 114.707 38.3906 111.582 38.3906C108.509 38.3906 106.191 37.3815 104.629 35.3633C103.079 33.332 102.285 30.3307 102.246 26.3594V21.4375C102.246 17.349 103.008 14.2826 104.531 12.2383C106.068 10.194 108.405 9.17188 111.543 9.17188C114.655 9.17188 116.973 10.168 118.496 12.1602C120.033 14.1523 120.82 17.1341 120.859 21.1055V26.0273ZM116.113 20.7148C116.113 18.0456 115.749 16.0924 115.02 14.8555C114.29 13.6055 113.132 12.9805 111.543 12.9805C109.993 12.9805 108.854 13.5729 108.125 14.7578C107.396 15.9297 107.012 17.7656 106.973 20.2656V26.7109C106.973 29.3672 107.344 31.3464 108.086 32.6484C108.828 33.9505 109.993 34.6016 111.582 34.6016C113.105 34.6016 114.232 34.0026 114.961 32.8047C115.69 31.5938 116.074 29.7057 116.113 27.1406V20.7148ZM143.594 26.0273C143.594 30.1159 142.826 33.2018 141.289 35.2852C139.766 37.3555 137.441 38.3906 134.316 38.3906C131.243 38.3906 128.926 37.3815 127.363 35.3633C125.814 33.332 125.02 30.3307 124.98 26.3594V21.4375C124.98 17.349 125.742 14.2826 127.266 12.2383C128.802 10.194 131.139 9.17188 134.277 9.17188C137.389 9.17188 139.707 10.168 141.23 12.1602C142.767 14.1523 143.555 17.1341 143.594 21.1055V26.0273ZM138.848 20.7148C138.848 18.0456 138.483 16.0924 137.754 14.8555C137.025 13.6055 135.866 12.9805 134.277 12.9805C132.728 12.9805 131.589 13.5729 130.859 14.7578C130.13 15.9297 129.746 17.7656 129.707 20.2656V26.7109C129.707 29.3672 130.078 31.3464 130.82 32.6484C131.562 33.9505 132.728 34.6016 134.316 34.6016C135.84 34.6016 136.966 34.0026 137.695 32.8047C138.424 31.5938 138.809 29.7057 138.848 27.1406V20.7148ZM166.328 26.0273C166.328 30.1159 165.56 33.2018 164.023 35.2852C162.5 37.3555 160.176 38.3906 157.051 38.3906C153.978 38.3906 151.66 37.3815 150.098 35.3633C148.548 33.332 147.754 30.3307 147.715 26.3594V21.4375C147.715 17.349 148.477 14.2826 150 12.2383C151.536 10.194 153.874 9.17188 157.012 9.17188C160.124 9.17188 162.441 10.168 163.965 12.1602C165.501 14.1523 166.289 17.1341 166.328 21.1055V26.0273ZM161.582 20.7148C161.582 18.0456 161.217 16.0924 160.488 14.8555C159.759 13.6055 158.6 12.9805 157.012 12.9805C155.462 12.9805 154.323 13.5729 153.594 14.7578C152.865 15.9297 152.48 17.7656 152.441 20.2656V26.7109C152.441 29.3672 152.812 31.3464 153.555 32.6484C154.297 33.9505 155.462 34.6016 157.051 34.6016C158.574 34.6016 159.701 34.0026 160.43 32.8047C161.159 31.5938 161.543 29.7057 161.582 27.1406V20.7148Z" fill="#27AE60"/>
<path d="M10.8203 70.5469V75H9.32031V63.625H13.5156C14.7604 63.625 15.7344 63.9427 16.4375 64.5781C17.1458 65.2135 17.5 66.0547 17.5 67.1016C17.5 68.2057 17.1536 69.0573 16.4609 69.6562C15.7734 70.25 14.7865 70.5469 13.5 70.5469H10.8203ZM10.8203 69.3203H13.5156C14.3177 69.3203 14.9323 69.1328 15.3594 68.7578C15.7865 68.3776 16 67.8307 16 67.1172C16 66.4401 15.7865 65.8984 15.3594 65.4922C14.9323 65.0859 14.3464 64.875 13.6016 64.8594H10.8203V69.3203ZM27.4438 69.7422H22.5141V73.7734H28.2406V75H21.0141V63.625H28.1625V64.8594H22.5141V68.5156H27.4438V69.7422ZM40.45 75H38.9422L33.2156 66.2344V75H31.7078V63.625H33.2156L38.9578 72.4297V63.625H40.45V75ZM53.1125 73.5078C52.7271 74.0599 52.188 74.474 51.4953 74.75C50.8078 75.0208 50.0057 75.1562 49.0891 75.1562C48.162 75.1562 47.3391 74.9401 46.6203 74.5078C45.9016 74.0703 45.3443 73.4505 44.9484 72.6484C44.5578 71.8464 44.3573 70.9167 44.3469 69.8594V68.8672C44.3469 67.1536 44.7453 65.8255 45.5422 64.8828C46.3443 63.9401 47.4693 63.4688 48.9172 63.4688C50.1047 63.4688 51.0604 63.7734 51.7844 64.3828C52.5083 64.987 52.951 65.8464 53.1125 66.9609H51.6125C51.3312 65.4557 50.4354 64.7031 48.925 64.7031C47.9198 64.7031 47.1568 65.0573 46.6359 65.7656C46.1203 66.4688 45.8599 67.4896 45.8547 68.8281V69.7578C45.8547 71.0339 46.1464 72.0495 46.7297 72.8047C47.313 73.5547 48.1021 73.9297 49.0969 73.9297C49.6594 73.9297 50.1516 73.8672 50.5734 73.7422C50.9953 73.6172 51.3443 73.4062 51.6203 73.1094V70.5547H48.9875V69.3359H53.1125V73.5078ZM65.6188 73.5078C65.2333 74.0599 64.6943 74.474 64.0016 74.75C63.3141 75.0208 62.512 75.1562 61.5953 75.1562C60.6682 75.1562 59.8453 74.9401 59.1266 74.5078C58.4078 74.0703 57.8505 73.4505 57.4547 72.6484C57.0641 71.8464 56.8635 70.9167 56.8531 69.8594V68.8672C56.8531 67.1536 57.2516 65.8255 58.0484 64.8828C58.8505 63.9401 59.9755 63.4688 61.4234 63.4688C62.6109 63.4688 63.5667 63.7734 64.2906 64.3828C65.0146 64.987 65.4573 65.8464 65.6188 66.9609H64.1188C63.8375 65.4557 62.9417 64.7031 61.4313 64.7031C60.426 64.7031 59.663 65.0573 59.1422 65.7656C58.6266 66.4688 58.3661 67.4896 58.3609 68.8281V69.7578C58.3609 71.0339 58.6526 72.0495 59.2359 72.8047C59.8193 73.5547 60.6083 73.9297 61.6031 73.9297C62.1656 73.9297 62.6578 73.8672 63.0797 73.7422C63.5016 73.6172 63.8505 73.4062 64.1266 73.1094V70.5547H61.4938V69.3359H65.6188V73.5078ZM77.7344 63.625V71.3594C77.7292 72.4323 77.3906 73.3099 76.7188 73.9922C76.0521 74.6745 75.1458 75.0573 74 75.1406L73.6016 75.1562C72.3568 75.1562 71.3646 74.8203 70.625 74.1484C69.8854 73.4766 69.5104 72.5521 69.5 71.375V63.625H70.9844V71.3281C70.9844 72.151 71.2109 72.7917 71.6641 73.25C72.1172 73.7031 72.763 73.9297 73.6016 73.9297C74.4505 73.9297 75.099 73.7031 75.5469 73.25C76 72.7969 76.2266 72.1589 76.2266 71.3359V63.625H77.7344ZM90.4437 75H88.9359L83.2094 66.2344V75H81.7016V63.625H83.2094L88.9516 72.4297V63.625H90.4437V75ZM101.13 72.0312H96.3641L95.2937 75H93.7469L98.0906 63.625H99.4031L103.755 75H102.216L101.13 72.0312ZM96.8172 70.7969H100.684L98.7469 65.4766L96.8172 70.7969ZM118.736 72.0312H113.97L112.9 75H111.353L115.697 63.625H117.009L121.361 75H119.822L118.736 72.0312ZM114.423 70.7969H118.291L116.353 65.4766L114.423 70.7969ZM127.383 69.7109L125.992 71.1562V75H124.492V63.625H125.992V69.25L131.047 63.625H132.859L128.383 68.6484L133.211 75H131.414L127.383 69.7109ZM143.983 64.8594H140.327V75H138.834V64.8594H135.186V63.625H143.983V64.8594ZM148.88 75H147.38V63.625H148.88V75ZM159.503 69.9766H154.73V75H153.23V63.625H160.277V64.8594H154.73V68.75H159.503V69.9766Z" fill="#696969"/>
<path d="M209.5 1.00085L209 78.9993" stroke="#CCCCCC"/>
<path d="M264.07 25.5781L252 21.1445V16.4766L268.875 23.7422V27.5117L252 34.7773V30.1094L264.07 25.5781ZM285.301 38H280.574V15.168L273.602 17.5508V13.5469L284.695 9.46484H285.301V38ZM313.719 26.0273C313.719 30.1159 312.951 33.2018 311.414 35.2852C309.891 37.3555 307.566 38.3906 304.441 38.3906C301.368 38.3906 299.051 37.3815 297.488 35.3633C295.939 33.332 295.145 30.3307 295.105 26.3594V21.4375C295.105 17.349 295.867 14.2826 297.391 12.2383C298.927 10.194 301.264 9.17188 304.402 9.17188C307.514 9.17188 309.832 10.168 311.355 12.1602C312.892 14.1523 313.68 17.1341 313.719 21.1055V26.0273ZM308.973 20.7148C308.973 18.0456 308.608 16.0924 307.879 14.8555C307.15 13.6055 305.991 12.9805 304.402 12.9805C302.853 12.9805 301.714 13.5729 300.984 14.7578C300.255 15.9297 299.871 17.7656 299.832 20.2656V26.7109C299.832 29.3672 300.203 31.3464 300.945 32.6484C301.688 33.9505 302.853 34.6016 304.441 34.6016C305.965 34.6016 307.091 34.0026 307.82 32.8047C308.549 31.5938 308.934 29.7057 308.973 27.1406V20.7148ZM336.453 26.0273C336.453 30.1159 335.685 33.2018 334.148 35.2852C332.625 37.3555 330.301 38.3906 327.176 38.3906C324.103 38.3906 321.785 37.3815 320.223 35.3633C318.673 33.332 317.879 30.3307 317.84 26.3594V21.4375C317.84 17.349 318.602 14.2826 320.125 12.2383C321.661 10.194 323.999 9.17188 327.137 9.17188C330.249 9.17188 332.566 10.168 334.09 12.1602C335.626 14.1523 336.414 17.1341 336.453 21.1055V26.0273ZM331.707 20.7148C331.707 18.0456 331.342 16.0924 330.613 14.8555C329.884 13.6055 328.725 12.9805 327.137 12.9805C325.587 12.9805 324.448 13.5729 323.719 14.7578C322.99 15.9297 322.605 17.7656 322.566 20.2656V26.7109C322.566 29.3672 322.938 31.3464 323.68 32.6484C324.422 33.9505 325.587 34.6016 327.176 34.6016C328.699 34.6016 329.826 34.0026 330.555 32.8047C331.284 31.5938 331.668 29.7057 331.707 27.1406V20.7148ZM359.188 26.0273C359.188 30.1159 358.419 33.2018 356.883 35.2852C355.359 37.3555 353.035 38.3906 349.91 38.3906C346.837 38.3906 344.52 37.3815 342.957 35.3633C341.408 33.332 340.613 30.3307 340.574 26.3594V21.4375C340.574 17.349 341.336 14.2826 342.859 12.2383C344.396 10.194 346.733 9.17188 349.871 9.17188C352.983 9.17188 355.301 10.168 356.824 12.1602C358.361 14.1523 359.148 17.1341 359.188 21.1055V26.0273ZM354.441 20.7148C354.441 18.0456 354.077 16.0924 353.348 14.8555C352.618 13.6055 351.46 12.9805 349.871 12.9805C348.322 12.9805 347.182 13.5729 346.453 14.7578C345.724 15.9297 345.34 17.7656 345.301 20.2656V26.7109C345.301 29.3672 345.672 31.3464 346.414 32.6484C347.156 33.9505 348.322 34.6016 349.91 34.6016C351.434 34.6016 352.56 34.0026 353.289 32.8047C354.018 31.5938 354.402 29.7057 354.441 27.1406V20.7148Z" fill="#27AE60"/>
<path d="M276.82 70.5469V75H275.32V63.625H279.516C280.76 63.625 281.734 63.9427 282.438 64.5781C283.146 65.2135 283.5 66.0547 283.5 67.1016C283.5 68.2057 283.154 69.0573 282.461 69.6562C281.773 70.25 280.786 70.5469 279.5 70.5469H276.82ZM276.82 69.3203H279.516C280.318 69.3203 280.932 69.1328 281.359 68.7578C281.786 68.3776 282 67.8307 282 67.1172C282 66.4401 281.786 65.8984 281.359 65.4922C280.932 65.0859 280.346 64.875 279.602 64.8594H276.82V69.3203ZM293.444 69.7422H288.514V73.7734H294.241V75H287.014V63.625H294.163V64.8594H288.514V68.5156H293.444V69.7422ZM305.723 64.8594H302.067V75H300.575V64.8594H296.927V63.625H305.723V64.8594ZM314.667 72.0312H309.902L308.831 75H307.284L311.628 63.625H312.941L317.292 75H315.753L314.667 72.0312ZM310.355 70.7969H314.222L312.284 65.4766L310.355 70.7969ZM329.166 75H327.658L321.931 66.2344V75H320.423V63.625H321.931L327.673 72.4297V63.625H329.166V75ZM335.039 75H333.539V63.625H335.039V75Z" fill="#696969"/>
<path d="M402 1.00085L401.5 78.9993" stroke="#CCCCCC"/>
<path d="M456.57 25.5781L444.5 21.1445V16.4766L461.375 23.7422V27.5117L444.5 34.7773V30.1094L456.57 25.5781ZM477.801 38H473.074V15.168L466.102 17.5508V13.5469L477.195 9.46484H477.801V38ZM506.219 26.0273C506.219 30.1159 505.451 33.2018 503.914 35.2852C502.391 37.3555 500.066 38.3906 496.941 38.3906C493.868 38.3906 491.551 37.3815 489.988 35.3633C488.439 33.332 487.645 30.3307 487.605 26.3594V21.4375C487.605 17.349 488.367 14.2826 489.891 12.2383C491.427 10.194 493.764 9.17188 496.902 9.17188C500.014 9.17188 502.332 10.168 503.855 12.1602C505.392 14.1523 506.18 17.1341 506.219 21.1055V26.0273ZM501.473 20.7148C501.473 18.0456 501.108 16.0924 500.379 14.8555C499.65 13.6055 498.491 12.9805 496.902 12.9805C495.353 12.9805 494.214 13.5729 493.484 14.7578C492.755 15.9297 492.371 17.7656 492.332 20.2656V26.7109C492.332 29.3672 492.703 31.3464 493.445 32.6484C494.188 33.9505 495.353 34.6016 496.941 34.6016C498.465 34.6016 499.591 34.0026 500.32 32.8047C501.049 31.5938 501.434 29.7057 501.473 27.1406V20.7148ZM528.953 26.0273C528.953 30.1159 528.185 33.2018 526.648 35.2852C525.125 37.3555 522.801 38.3906 519.676 38.3906C516.603 38.3906 514.285 37.3815 512.723 35.3633C511.173 33.332 510.379 30.3307 510.34 26.3594V21.4375C510.34 17.349 511.102 14.2826 512.625 12.2383C514.161 10.194 516.499 9.17188 519.637 9.17188C522.749 9.17188 525.066 10.168 526.59 12.1602C528.126 14.1523 528.914 17.1341 528.953 21.1055V26.0273ZM524.207 20.7148C524.207 18.0456 523.842 16.0924 523.113 14.8555C522.384 13.6055 521.225 12.9805 519.637 12.9805C518.087 12.9805 516.948 13.5729 516.219 14.7578C515.49 15.9297 515.105 17.7656 515.066 20.2656V26.7109C515.066 29.3672 515.438 31.3464 516.18 32.6484C516.922 33.9505 518.087 34.6016 519.676 34.6016C521.199 34.6016 522.326 34.0026 523.055 32.8047C523.784 31.5938 524.168 29.7057 524.207 27.1406V20.7148Z" fill="#27AE60"/>
<path d="M454.82 70.5469V75H453.32V63.625H457.516C458.76 63.625 459.734 63.9427 460.438 64.5781C461.146 65.2135 461.5 66.0547 461.5 67.1016C461.5 68.2057 461.154 69.0573 460.461 69.6562C459.773 70.25 458.786 70.5469 457.5 70.5469H454.82ZM454.82 69.3203H457.516C458.318 69.3203 458.932 69.1328 459.359 68.7578C459.786 68.3776 460 67.8307 460 67.1172C460 66.4401 459.786 65.8984 459.359 65.4922C458.932 65.0859 458.346 64.875 457.602 64.8594H454.82V69.3203ZM469.186 70.3984H466.514V75H465.006V63.625H468.772C470.053 63.625 471.038 63.9167 471.725 64.5C472.418 65.0833 472.764 65.9323 472.764 67.0469C472.764 67.7552 472.571 68.3724 472.186 68.8984C471.806 69.4245 471.274 69.8177 470.592 70.0781L473.264 74.9062V75H471.655L469.186 70.3984ZM466.514 69.1719H468.819C469.564 69.1719 470.155 68.9792 470.592 68.5938C471.035 68.2083 471.256 67.6927 471.256 67.0469C471.256 66.3438 471.045 65.8047 470.623 65.4297C470.207 65.0547 469.603 64.8646 468.811 64.8594H466.514V69.1719ZM485.223 69.6797C485.223 70.7943 485.036 71.7682 484.661 72.6016C484.286 73.4297 483.755 74.0625 483.067 74.5C482.38 74.9375 481.578 75.1562 480.661 75.1562C479.765 75.1562 478.971 74.9375 478.278 74.5C477.585 74.0573 477.046 73.4297 476.661 72.6172C476.281 71.7995 476.085 70.8542 476.075 69.7812V68.9609C476.075 67.8672 476.265 66.901 476.645 66.0625C477.026 65.224 477.562 64.5833 478.255 64.1406C478.953 63.6927 479.749 63.4688 480.645 63.4688C481.557 63.4688 482.359 63.6901 483.052 64.1328C483.749 64.5703 484.286 65.2083 484.661 66.0469C485.036 66.8802 485.223 67.8516 485.223 68.9609V69.6797ZM483.731 68.9453C483.731 67.5964 483.46 66.5625 482.919 65.8438C482.377 65.1198 481.619 64.7578 480.645 64.7578C479.697 64.7578 478.95 65.1198 478.403 65.8438C477.861 66.5625 477.583 67.5625 477.567 68.8438V69.6797C477.567 70.987 477.841 72.0156 478.388 72.7656C478.94 73.5104 479.697 73.8828 480.661 73.8828C481.63 73.8828 482.38 73.5312 482.911 72.8281C483.442 72.1198 483.716 71.1068 483.731 69.7891V68.9453ZM489.073 75V63.625H492.284C493.274 63.625 494.149 63.8438 494.909 64.2812C495.67 64.7188 496.256 65.3411 496.667 66.1484C497.084 66.9557 497.295 67.8828 497.3 68.9297V69.6562C497.3 70.7292 497.092 71.6693 496.675 72.4766C496.264 73.2839 495.672 73.9036 494.902 74.3359C494.136 74.7682 493.243 74.9896 492.222 75H489.073ZM490.573 64.8594V73.7734H492.152C493.308 73.7734 494.206 73.4141 494.847 72.6953C495.493 71.9766 495.816 70.9531 495.816 69.625V68.9609C495.816 67.6693 495.511 66.6667 494.902 65.9531C494.297 65.2344 493.438 64.8698 492.323 64.8594H490.573ZM509.181 63.625V71.3594C509.176 72.4323 508.838 73.3099 508.166 73.9922C507.499 74.6745 506.593 75.0573 505.447 75.1406L505.048 75.1562C503.804 75.1562 502.811 74.8203 502.072 74.1484C501.332 73.4766 500.957 72.5521 500.947 71.375V63.625H502.431V71.3281C502.431 72.151 502.658 72.7917 503.111 73.25C503.564 73.7031 504.21 73.9297 505.048 73.9297C505.897 73.9297 506.546 73.7031 506.994 73.25C507.447 72.7969 507.673 72.1589 507.673 71.3359V63.625H509.181ZM516.039 69.7109L514.648 71.1562V75H513.148V63.625H514.648V69.25L519.703 63.625H521.516L517.039 68.6484L521.867 75H520.07L516.039 69.7109Z" fill="#696969"/>
</svg>
