<svg width="131" height="131" viewBox="0 0 131 131" fill="none" xmlns="http://www.w3.org/2000/svg">
<path d="M65.5 0C52.5453 0 39.8816 3.84151 29.1102 11.0387C18.3388 18.236 9.94346 28.4657 4.98592 40.4342C0.0283799 52.4028 -1.26874 65.5726 1.25859 78.2784C3.78592 90.9841 10.0242 102.655 19.1845 111.815C28.3449 120.976 40.0159 127.214 52.7216 129.741C65.4274 132.269 78.5972 130.972 90.5658 126.014C102.534 121.057 112.764 112.661 119.961 101.89C127.158 91.1184 131 78.4547 131 65.5C131 48.1283 124.099 31.4681 111.816 19.1845C99.5319 6.90087 82.8717 0 65.5 0ZM108.28 43.5166L54.4878 97.2675L22.7203 65.5C21.6346 64.4143 21.0247 62.9417 21.0247 61.4062C21.0247 59.8708 21.6346 58.3982 22.7203 57.3125C23.8061 56.2268 25.2786 55.6168 26.8141 55.6168C28.3495 55.6168 29.8221 56.2268 30.9078 57.3125L54.5697 80.9744L100.174 35.4109C100.712 34.8733 101.35 34.4469 102.052 34.1559C102.755 33.865 103.508 33.7152 104.268 33.7152C105.028 33.7152 105.781 33.865 106.483 34.1559C107.186 34.4469 107.824 34.8733 108.362 35.4109C108.899 35.9485 109.326 36.5867 109.617 37.2892C109.908 37.9916 110.057 38.7444 110.057 39.5047C110.057 40.265 109.908 41.0178 109.617 41.7202C109.326 42.4226 108.899 43.0608 108.362 43.5984L108.28 43.5166Z" fill="url(#paint0_linear_712_24)"/>
<defs>
<linearGradient id="paint0_linear_712_24" x1="107.5" y1="114.5" x2="19" y2="19.5" gradientUnits="userSpaceOnUse">
<stop stop-color="#89FF87"/>
<stop offset="0.424764" stop-color="#64DF5A"/>
<stop offset="1" stop-color="#2DB722"/>
</linearGradient>
</defs>
</svg>
