<svg width="128" height="128" viewBox="0 0 128 128" fill="none" xmlns="http://www.w3.org/2000/svg">
<g clip-path="url(#clip0_1_9198)">
<path d="M29.2432 23.6176C30.2787 23.6176 31.1182 22.7781 31.1182 21.7426C31.1182 20.7071 30.2787 19.8676 29.2432 19.8676C28.2078 19.8676 27.3682 20.7071 27.3682 21.7426C27.3682 22.7781 28.2075 23.6176 29.2432 23.6176ZM14.2432 23.6176C15.2787 23.6176 16.1182 22.7781 16.1182 21.7426C16.1182 20.7071 15.2787 19.8676 14.2432 19.8676C13.2078 19.8676 12.3682 20.7071 12.3682 21.7426C12.3682 22.7781 13.2075 23.6176 14.2432 23.6176ZM21.7432 23.6176C22.7787 23.6176 23.6182 22.7781 23.6182 21.7426C23.6182 20.7071 22.7787 19.8676 21.7432 19.8676C20.7078 19.8676 19.8682 20.7071 19.8682 21.7426C19.8682 22.7781 20.7075 23.6176 21.7432 23.6176ZM21.332 43.4809C21.3435 43.4811 21.355 43.4811 21.3665 43.4811L38.3187 43.4854H38.3198C39.491 43.4854 40.4852 42.7266 40.7945 41.5971C41.104 40.4671 40.6343 39.3074 39.6263 38.7111L37.048 37.1856C41.192 33.0784 43.5227 27.4744 43.4857 21.6029C43.4115 9.86086 33.801 0.171109 22.0625 0.0021092C9.89875 -0.172641 0 9.66661 0 21.7431C0 33.3239 9.542 43.2301 21.332 43.4809ZM9.1125 8.92811C12.57 5.52011 17.14 3.68386 22.0088 3.75161C31.722 3.89136 39.6742 11.9099 39.7357 21.6264C39.769 26.8686 37.521 31.8539 33.568 35.3034C32.907 35.8799 32.5607 36.7451 32.6408 37.6179C32.7208 38.4901 33.219 39.2771 33.9728 39.7229L33.9915 39.7339L21.385 39.7309C11.6395 39.5439 3.75 31.5154 3.75 21.7431C3.75 16.8879 5.6545 12.3369 9.1125 8.92811ZM126.125 124.25H124.25V96.3274C124.25 89.0119 119.927 82.3689 113.216 79.3941L103.335 75.1589C105.739 74.4001 107.911 73.0471 109.679 71.1704C112.346 68.3391 113.875 64.4974 113.875 60.6301C113.875 57.0766 112.633 53.7226 110.284 50.9299C107.346 47.4406 105.728 43.0061 105.728 38.4426V29.4576C105.728 21.5881 102.663 14.1911 97.0983 8.62936C91.5338 3.06436 84.136 -0.000140798 76.2675 -0.000140798C60.0245 -0.000140798 46.81 13.2144 46.81 29.4574V38.1499C46.811 42.8719 44.9552 47.3791 41.9398 51.0124C38.1445 55.5849 37.356 61.7671 39.8823 67.1464C41.7573 71.1394 45.1393 74.0081 49.188 75.2224L39.3755 79.4894C32.4912 82.3864 28.0427 89.0841 28.0427 96.5526V118.625C28.0427 119.661 28.882 120.5 29.9177 120.5C30.9535 120.5 31.7927 119.661 31.7927 118.625V96.5526C31.7927 90.5971 35.34 85.2559 40.8505 82.9371L53.15 77.5886V88.8749H47.4992C45.9067 88.8749 44.3825 89.5539 43.3172 90.7379C42.2523 91.9219 41.7378 93.5091 41.9058 95.0926L44.9965 124.25H1.875C0.83925 124.25 0 125.089 0 126.125C0 127.16 0.83925 128 1.875 128H126.125C127.161 128 128 127.16 128 126.125C128 125.089 127.161 124.25 126.125 124.25ZM107.415 53.3444C109.188 55.4519 110.125 57.9711 110.125 60.6299C110.125 63.5516 108.967 66.4561 106.949 68.5991C104.812 70.8679 101.876 72.1174 98.6827 72.1174H96.2393L93.0295 70.7416C90.2258 69.5391 88.3077 66.9614 87.9157 63.9941C93.701 60.8791 97.6428 54.7656 97.6428 47.7474V33.6516C98.1915 33.6889 98.7397 33.7091 99.2865 33.7091C100.188 33.7091 101.087 33.6579 101.978 33.5569V38.4424C101.978 43.8884 103.909 49.1809 107.415 53.3444ZM76.7233 82.9446C70.0155 83.0634 63.3583 82.2134 56.9 80.4221V75.9579L57.4422 75.7221C57.4465 75.7204 57.4507 75.7184 57.4552 75.7166L60.8003 74.2621C64.5238 72.6434 67.155 69.3279 67.9528 65.4534C69.5855 65.9281 71.3088 66.1876 73.0928 66.1876H79.2025C80.9932 66.1876 82.723 65.9261 84.3613 65.4479C85.1852 69.3046 87.8265 72.5904 91.5518 74.1884L95.1217 75.7184C95.124 75.7194 95.1263 75.7204 95.1285 75.7211L95.393 75.8344V80.0536C89.3247 81.8616 83.0513 82.8341 76.7233 82.9446ZM95.3925 83.9576V88.8751H56.9V84.3051C62.9785 85.8989 69.2195 86.7054 75.5027 86.7054C75.9312 86.7054 76.36 86.7016 76.7887 86.6941C83.0863 86.5841 89.3323 85.6639 95.3925 83.9576ZM101.978 29.7759C96.8128 30.4736 90.991 29.0901 86.98 25.9824C86.1618 25.3484 84.984 25.4974 84.3495 26.3161C83.7153 27.1346 83.8648 28.3124 84.6833 28.9466C87.3055 30.9781 90.4683 32.4091 93.8928 33.1306V43.3384C92.9918 45.3919 91.9888 47.0996 89.7275 48.9651C88.7755 49.7506 87.7335 50.4029 86.6175 50.9204C85.7063 49.1421 83.8555 47.9216 81.724 47.9216H77.33C74.2993 47.9216 71.8337 50.3874 71.8337 53.4179C71.8337 56.4484 74.2993 58.9141 77.33 58.9141H81.724C84.2745 58.9141 86.4245 57.1676 87.0417 54.8081C89.55 53.8524 93.6397 50.4429 93.6407 50.4416C92.371 57.2584 86.382 62.4366 79.2028 62.4366H73.0925C64.9925 62.4366 58.4025 55.8469 58.4025 47.7466V33.2531C64.7708 32.2549 70.787 30.0999 76.3045 26.8364C84.7055 21.8671 90.0943 15.3736 93.3463 10.2434C98.9105 15.1991 102.076 22.3039 101.978 29.7759ZM83.4697 53.4231C83.467 54.3839 82.685 55.1646 81.7237 55.1646H77.3298C76.3668 55.1646 75.5835 54.3811 75.5835 53.4184C75.5835 52.4556 76.367 51.6721 77.3298 51.6721H81.7237C82.6847 51.6721 83.4665 52.4524 83.4697 53.4126V53.4231ZM50.56 29.4574C50.56 15.2821 62.0923 3.74986 76.2675 3.74986C81.3512 3.74986 86.2092 5.21736 90.3605 7.94936C87.3677 12.7466 82.3305 18.9156 74.3952 23.6096C68.9515 26.8296 62.9803 28.8854 56.6468 29.7199H56.5298C56.529 29.7199 56.5282 29.7199 56.5272 29.7199C56.5262 29.7199 56.5257 29.7199 56.5247 29.7199H50.5597V29.4574H50.56ZM43.2762 65.5524C41.375 61.5029 41.9685 56.8491 44.823 53.4101C48.4048 49.0949 50.564 43.7629 50.56 38.1499V33.4699H54.6525V47.7474C54.6525 54.7696 58.5992 60.8861 64.3897 63.9994C64.0275 66.9891 62.1152 69.6009 59.3047 70.8229L56.3278 72.1174H53.61C49.1375 72.1174 45.178 69.6019 43.2762 65.5524ZM108.548 94.6976L105.415 124.25H48.7675L45.6348 94.6976C45.578 94.1619 45.745 93.6464 46.1053 93.2461C46.4655 92.8456 46.9607 92.6251 47.4992 92.6251H106.684C107.222 92.6251 107.717 92.8456 108.077 93.2461C108.438 93.6464 108.605 94.1619 108.548 94.6976ZM120.5 124.25H109.186L112.277 95.0931C112.445 93.5094 111.93 91.9221 110.866 90.7381C109.8 89.5541 108.276 88.8751 106.684 88.8751H99.1425V77.4419L111.718 82.8316C117.053 85.1966 120.5 90.4939 120.5 96.3274V124.25ZM77.0912 101.312C73.1625 101.312 69.9662 104.509 69.9662 108.437C69.9662 112.366 73.1625 115.562 77.0912 115.562C81.02 115.562 84.2162 112.366 84.2162 108.437C84.2162 104.509 81.02 101.312 77.0912 101.312ZM77.0912 111.812C75.2302 111.812 73.7162 110.298 73.7162 108.437C73.7162 106.576 75.2302 105.062 77.0912 105.062C78.9522 105.062 80.4662 106.576 80.4662 108.437C80.4662 110.298 78.9525 111.812 77.0912 111.812Z" fill="url(#paint0_linear_1_9198)"/>
</g>
<defs>
<linearGradient id="paint0_linear_1_9198" x1="111.184" y1="92.4909" x2="34.7298" y2="-0.158896" gradientUnits="userSpaceOnUse">
<stop stop-color="#89FF87"/>
<stop offset="1" stop-color="#2DB722"/>
</linearGradient>
<clipPath id="clip0_1_9198">
<rect width="128" height="128" fill="white"/>
</clipPath>
</defs>
</svg>
